D:\PredSimResults\Vitruvian_Man\IG_v20ms_ATx70.mot
version=1
nRows=6
nColumns=31
inDegrees=yes
endheader
                time	         pelvis_tilt	           pelvis_tx	           pelvis_ty	       hip_flexion_r	        knee_angle_r	       ankle_angle_r	       hip_flexion_l	        knee_angle_l	       ankle_angle_l	    lumbar_extension	          arm_flex_r	          arm_flex_l	hamstrings_r/activation	bifemsh_r/activation	glut_max_r/activation	iliopsoas_r/activation	rect_fem_r/activation	  vasti_r/activation	gastroc_r/activation	 soleus_r/activation	tib_ant_r/activation	hamstrings_l/activation	bifemsh_l/activation	glut_max_l/activation	iliopsoas_l/activation	rect_fem_l/activation	  vasti_l/activation	gastroc_l/activation	 soleus_l/activation	tib_ant_l/activation	
          0.00000000	         -3.55818105	          0.00000000	          0.96591192	         34.50881387	        -16.13316660	         10.44101818	        -12.18592265	        -19.79096815	         -4.50333732	        -10.05378776	         35.62606901	         35.62549471	          0.83456795	          0.05730428	          0.49803260	          0.06467495	          0.05689227	          0.12129554	          0.05001702	          0.05000532	          0.64361820	          0.05000273	          0.05640259	          0.06363678	          0.91545024	          0.51783715	          0.10819755	          0.31565145	          0.16080454	          0.13713500	
          0.00823964	         -4.10928829	          0.02109552	          0.96350488	         34.50114756	        -17.09842990	          9.65552841	        -12.17348087	        -20.52092326	         -6.95731411	         -8.79060894	         34.88819130	         34.88761070	          0.73379963	          0.05042216	          0.63712351	          0.05686635	          0.05002437	          0.29599452	          0.05002891	          0.05210423	          0.76996972	          0.07175880	          0.05012170	          0.08684535	          0.87785353	          0.45531349	          0.09513859	          0.27753836	          0.14138820	          0.43187645	
          0.01647929	         -4.65934632	          0.04200985	          0.96113796	         34.59313978	        -18.40235942	          9.11212177	        -11.91903040	        -21.56808248	         -9.07632948	         -7.52383575	         34.11262696	         34.11204234	          0.64519690	          0.05003808	          0.73557730	          0.05000183	          0.05000199	          0.46120699	          0.05000268	          0.05000116	          0.85152614	          0.06309688	          0.05001418	          0.07636785	          0.88101654	          0.51396359	          0.08365398	          0.24402781	          0.12431649	          0.37972970	
          0.02471893	         -5.20144038	          0.06228872	          0.95913269	         34.87039602	        -19.78985658	          7.43311940	        -11.40891103	        -22.83382298	         -9.79616203	         -6.32885211	         33.35528455	         33.35469847	          0.56729245	          0.05003206	          0.80930257	          0.05000493	          0.05000976	          0.61371280	          0.05000432	          0.05000187	          0.90416689	          0.05548003	          0.05004510	          0.06714750	          0.85236848	          0.56906196	          0.07355373	          0.21456335	          0.10930603	          0.54147084	
          0.03295857	         -5.70295201	          0.08203511	          0.95762304	         35.22620663	        -21.33264610	          5.81209380	        -10.72582369	        -24.19747643	         -9.52622406	         -5.23385226	         32.60430007	         32.60371516	          0.49879460	          0.05002209	          0.87688512	          0.05000669	          0.05002269	          0.75061039	          0.05000510	          0.05000214	          0.93814385	          0.05000555	          0.14886887	          0.05904045	          0.79199885	          0.55077525	          0.06467292	          0.18865677	          0.09610803	          0.56769974	
          0.04119821	         -6.15513835	          0.10142701	          0.95666752	         35.50147844	        -22.86971106	          4.71304683	         -9.92031578	        -25.54276921	         -9.30713375	         -4.22757967	         31.83389899	         31.83331794	          0.43856753	          0.05003038	          0.89158771	          0.05001008	          0.05002646	          0.82709544	          0.05000422	          0.05000172	          0.96007432	          0.05000713	          0.22475940	          0.05191269	          0.72399163	          0.48428677	          0.05686460	          0.16587868	          0.08450370	          0.56761886	
